<?xml version="1.0" standalone="no"?>
<!DOCTYPE svg PUBLIC "-//W3C//DTD SVG 20010904//EN"
 "http://www.w3.org/TR/2001/REC-SVG-20010904/DTD/svg10.dtd">
<svg version="1.0" xmlns="http://www.w3.org/2000/svg"
 width="700.000000pt" height="700.000000pt" viewBox="0 0 700.000000 700.000000"
 preserveAspectRatio="xMidYMid meet">
<metadata>
Created by potrace 1.11, written by Peter Selinger 2001-2013
</metadata>
<g transform="translate(0.000000,700.000000) scale(0.100000,-0.100000)"
fill="#000000" stroke="none">
<path d="M2895 6229 c-132 -194 -289 -425 -349 -513 -60 -89 -141 -208 -181
-266 -39 -58 -141 -206 -225 -330 -84 -124 -181 -265 -215 -315 -34 -49 -133
-196 -219 -325 -86 -129 -160 -239 -164 -245 -22 -29 -316 -499 -397 -634
-233 -392 -374 -666 -388 -757 -4 -27 0 -34 42 -62 52 -35 178 -74 296 -92 44
-6 91 -14 105 -17 14 -3 212 -7 440 -10 228 -2 424 -5 436 -6 18 -2 9 -21 -77
-152 -54 -82 -117 -179 -139 -215 -23 -36 -77 -119 -120 -185 -43 -66 -106
-163 -140 -215 -34 -52 -97 -149 -140 -215 -241 -365 -418 -664 -530 -892
-101 -206 -141 -351 -107 -396 11 -16 16 -16 67 -1 253 75 1386 807 2703 1744
450 321 450 321 751 543 302 224 297 220 310 232 6 6 56 44 111 85 119 90 328
251 335 260 3 3 37 30 75 60 39 30 81 65 95 76 14 12 66 57 115 99 180 155
285 266 285 304 0 29 -166 81 -315 100 -44 6 -100 13 -125 17 -25 3 -270 8
-545 11 -275 3 -502 7 -504 8 -2 2 16 25 40 51 24 26 51 55 59 64 8 9 51 56
95 106 44 49 82 91 85 94 3 3 84 93 180 200 96 107 177 197 180 200 3 3 41 46
85 95 44 50 87 97 95 105 8 8 49 53 90 100 41 46 84 94 95 106 17 18 101 112
155 174 57 65 138 157 155 174 11 12 58 66 105 121 47 55 87 102 90 105 23 20
194 244 249 325 108 158 151 255 151 343 0 172 -176 243 -695 278 -49 3 -578
8 -1175 11 l-1085 4 -240 -352z m2295 58 c25 -3 90 -8 145 -12 211 -14 326
-30 451 -64 91 -25 119 -81 61 -125 -29 -21 -52 -19 -133 15 -58 23 -114 -19
-114 -87 0 -29 -30 -84 -112 -204 -50 -74 -241 -326 -258 -340 -3 -3 -21 -25
-40 -50 -19 -25 -39 -50 -45 -56 -5 -6 -21 -26 -35 -44 -22 -30 -179 -218
-205 -246 -5 -6 -40 -47 -77 -90 -36 -43 -143 -170 -237 -281 -404 -479 -636
-808 -616 -874 10 -32 141 -79 320 -115 135 -27 166 -32 230 -40 28 -4 53 -8
56 -10 3 -2 46 -8 95 -15 49 -6 98 -13 109 -14 31 -5 96 -15 140 -20 21 -3 97
-14 169 -25 71 -11 131 -20 134 -20 5 0 -61 -51 -105 -80 -11 -8 -90 -64 -174
-125 -84 -60 -176 -126 -204 -146 -27 -20 -198 -142 -380 -272 -709 -509 -980
-704 -1034 -741 -55 -38 -652 -457 -781 -548 -36 -25 -213 -150 -395 -276
-181 -127 -343 -240 -360 -252 -153 -109 -512 -352 -556 -378 -97 -55 -112
-37 -58 71 50 98 138 235 514 797 192 289 386 581 429 650 43 69 86 136 95
150 9 14 21 34 27 45 6 11 33 58 61 105 51 88 76 147 68 160 -8 12 -116 39
-185 45 -36 3 -85 8 -110 11 -25 2 -126 7 -225 9 -610 16 -613 16 -700 36
-105 24 -142 61 -131 131 7 40 99 236 137 290 11 14 19 29 19 33 0 3 14 26 30
50 17 24 30 46 30 48 0 7 170 277 301 477 477 731 1156 1669 1326 1831 26 26
60 49 75 53 59 14 123 111 179 271 22 62 46 112 69 137 50 59 139 95 285 113
28 4 61 8 75 11 14 2 95 6 180 10 85 3 157 8 158 9 6 5 1251 -3 1302 -8z"/>
</g>
</svg>
